<svg width="18" height="18" viewBox="0 0 18 18" fill="none" xmlns="http://www.w3.org/2000/svg">
<path d="M7.55566 0.620117C12.7183 -0.230493 17.1971 3.56794 17.4863 8.49805C17.7665 13.2693 13.7821 17.5 9.00391 17.5C7.43998 17.4999 5.97002 17.0748 4.70312 16.335L4.52148 16.2295L4.31836 16.2852L1.37598 17.0947L1.37207 17.0957C1.08312 17.1777 0.804167 16.912 0.884766 16.6084L1.68555 13.6299L1.73926 13.4297L1.63574 13.25C0.709738 11.6441 0.283885 9.69834 0.607422 7.6377V7.63672C1.15934 4.08799 4.00793 1.20599 7.55566 0.620117Z" stroke="black"/>
<path d="M13.0939 11.593C13.0939 11.7398 13.0612 11.8948 12.9876 12.0416C12.9139 12.1885 12.824 12.3271 12.7094 12.4577C12.5049 12.6779 12.2839 12.841 12.0385 12.9389C11.793 13.045 11.523 13.0939 11.2366 13.0939C10.8194 13.0939 10.3694 12.996 9.903 12.7921C9.42845 12.5882 8.96211 12.319 8.49575 11.9845C8.0212 11.6419 7.57937 11.2585 7.15392 10.8425C6.72847 10.4183 6.35213 9.96966 6.00849 9.50469C5.67304 9.03972 5.40301 8.57476 5.20664 8.10979C5.01028 7.64482 4.91211 7.19617 4.91211 6.77198C4.91211 6.49463 4.96119 6.22544 5.05938 5.98072C5.15756 5.72784 5.31303 5.49943 5.53394 5.2955C5.79575 5.03446 6.0821 4.91211 6.38483 4.91211C6.49937 4.91211 6.61395 4.93658 6.72031 4.98552C6.82667 5.03447 6.92483 5.10788 6.99846 5.21393L7.93939 6.55989C8.01303 6.66594 8.07031 6.75567 8.10304 6.8454C8.14395 6.93513 8.16027 7.01671 8.16027 7.09828C8.16027 7.19617 8.12755 7.29405 8.07028 7.39194C8.01301 7.48983 7.9394 7.58771 7.84121 7.6856L7.5303 8.0119C7.48121 8.06084 7.46483 8.10979 7.46483 8.17505C7.46483 8.20768 7.47303 8.2403 7.48121 8.27293C7.49758 8.30556 7.50574 8.33003 7.51392 8.3545C7.58756 8.49318 7.71849 8.66448 7.89849 8.87657C8.08667 9.08867 8.28302 9.30891 8.49575 9.52101C8.71666 9.74125 8.92938 9.93703 9.15029 10.1247C9.36301 10.3041 9.54303 10.4265 9.68212 10.4999C9.70667 10.508 9.73119 10.5244 9.75573 10.5325C9.78846 10.5488 9.82119 10.5488 9.8621 10.5488C9.93574 10.5488 9.98484 10.5244 10.0339 10.4754L10.3448 10.1654C10.4512 10.0594 10.5494 9.98598 10.6394 9.93703C10.7376 9.87993 10.8276 9.8473 10.9339 9.8473C11.0157 9.8473 11.0975 9.86362 11.1876 9.9044C11.2775 9.94519 11.3758 9.99414 11.4739 10.0676L12.8321 11.0301C12.9385 11.1035 13.0121 11.1933 13.0612 11.2912C13.0694 11.3809 13.0939 11.4788 13.0939 11.593Z" fill="black"/>
</svg>
