<svg width="64" height="48" viewBox="0 0 64 48" fill="none" xmlns="http://www.w3.org/2000/svg">
<path d="M28.9924 9.71967C27.7541 9.71967 27.3413 10.2344 26.3143 10.4286C21.7443 11.2977 19.2234 13.876 19.3413 13.842C22.1325 13.07 23.8376 13.036 24.56 13.0408C24.8794 13.0408 25.071 13.07 25.1251 13.0845C25.4003 13.1574 25.6067 13.405 25.6067 13.7012C25.6067 13.7692 25.5919 13.8371 25.5723 13.8954C25.5723 13.9003 25.5526 13.9537 25.5428 13.9682C25.3217 14.4829 23.474 18.78 23.13 19.4695C20.5354 24.5921 18.6091 29.802 17.3855 34.978L17.3413 35.1771H22.2897L22.3192 35.0557C23.8376 29.0446 26.4568 22.7616 29.8966 16.8767C31.2971 14.4829 32.8253 12.1571 34.447 9.9673L34.6337 9.70996H28.9973L28.9924 9.71967Z" fill="black"/>
<path d="M52.6975 37.7457C51.4002 39.416 49.9064 40.8727 48.3781 41.9506C46.1914 43.2956 44.2946 43.6112 43.0366 42.8343C41.6951 42.004 41.4297 40.1929 41.4445 38.8188C41.4543 37.7603 41.5526 36.7406 41.9752 35.2548C43.0169 35.1626 46.614 34.6722 49.6361 32.395C49.8228 32.2541 50.0194 32.1133 50.216 31.9774C50.5059 31.7734 50.8056 31.5598 51.0956 31.3267C55.1595 28.0736 57.3708 23.8638 56.3535 21.3244C56.2307 21.0185 55.7786 20.2853 55.3118 19.9163C54.899 19.591 54.383 19.2317 53.6803 19.0666C50.4617 18.3091 46.1128 20.4067 42.6042 24.4174C41.7983 25.3399 41.0415 26.3498 40.3585 27.4278C40.1373 27.7725 39.9309 28.127 39.7344 28.4717L39.5771 28.7533L39.5673 28.7727L39.5526 28.797C39.1595 29.5982 38.6435 30.6567 38.5943 30.7684C38.27 31.521 37.9948 32.293 37.7688 33.0553C37.6263 33.0407 37.4936 33.0019 37.3806 32.9388C37.0071 32.7348 36.5649 32.0162 36.5649 31.1471C36.5649 29.6904 37.0464 28.3892 37.2676 27.6803C39.8032 19.5279 44.383 12.9584 45.3265 11.5454L45.5968 11.1424L45.1152 11.055C39.9359 10.0985 33.2479 13.8615 27.872 20.5767C25.8228 24.5727 24.157 28.6853 22.9629 32.7106C23.3069 31.89 23.6902 31.0743 24.1029 30.2682C24.6337 29.2292 25.2282 28.1901 25.8671 27.1801C28.6042 22.8587 32.1226 19.188 35.7835 16.8719C36.3929 16.4835 36.7909 16.3232 37.0317 16.2455C37.5034 16.0902 37.4641 16.3329 37.4101 16.4495C37.3314 16.6146 37.2233 16.8379 37.0563 17.1681L36.8204 17.6342C35.0219 21.1593 31.2774 28.5008 32.8155 32.9193C33.5722 35.0995 36.3388 35.4782 36.4567 35.4928C36.6975 35.5219 36.9531 35.551 37.2184 35.5705C36.7565 38.746 37.3265 41.4553 38.84 43.2227C39.1742 43.616 39.5575 43.9608 39.9801 44.257C40.5255 44.6357 41.469 45.1115 42.1128 45.262C42.5747 45.3689 43.3364 45.4611 43.7688 45.4611C46.7614 45.4611 48.2504 44.6065 49.0464 44.1453L49.13 44.0967C52.4027 42.2225 55.4002 38.2992 55.528 38.1342L55.9162 37.6195H52.8106L52.7123 37.7457H52.6975ZM44.2749 29.9818C44.4224 29.739 44.5501 29.5205 44.668 29.3166C44.6877 29.2826 44.7074 29.2486 44.7221 29.2146L44.7516 29.1563C44.845 29.001 44.9383 28.8456 45.0366 28.6951C45.872 27.3792 46.7958 26.1556 47.7884 25.0583L47.9113 24.9223C48.6042 24.1503 50.4469 22.0964 52.4813 21.1884C52.7024 21.0913 52.9236 21.0428 53.1349 21.0428C53.4002 21.0428 53.6508 21.1205 53.8572 21.271C54.6189 21.8294 54.442 23.5579 53.4346 25.3739C53.2037 25.7866 52.9334 26.2042 52.6336 26.6072C52.2209 27.1559 51.7737 27.6463 51.297 28.0736L51.2479 28.1173V28.127C51.0661 28.3115 50.8744 28.5008 50.6877 28.6805C48.1226 31.1277 45.184 32.7008 42.8843 32.8902C43.2872 31.9094 43.7688 30.9092 44.2798 29.9818H44.2749Z" fill="#939598"/>
<path d="M22.933 19.8577C21.3654 22.4845 19.4932 24.7132 17.6357 26.1456C15.8323 27.5391 14.2254 28.0149 13.2328 27.4517C12.2401 26.8836 11.8519 25.2764 12.1713 23.0332C12.5104 20.6588 13.5768 17.8475 15.1738 15.1138C17.9453 10.37 21.7094 7.03914 24.0534 7.03914C24.4121 7.03914 24.7365 7.11683 25.0166 7.27706C25.8372 7.74319 26.2156 8.8988 26.1713 10.4623C26.2156 10.4526 26.2598 10.4429 26.304 10.4331C27.1394 10.2729 27.5669 9.90389 28.3679 9.77279C28.1517 7.44701 27.2328 5.7233 25.6947 4.77162C23.7881 3.59173 21.1885 3.7811 18.3728 5.30573C15.621 6.80122 12.9723 9.40377 10.9183 12.6424C8.86422 15.881 7.64555 19.3721 7.4883 22.4699C7.32614 25.6357 8.28928 28.0295 10.1959 29.2142C12.6431 30.7292 16.2107 29.9571 19.7242 27.2235C20.6382 24.7617 21.7045 22.3049 22.9232 19.8625L22.933 19.8577Z" fill="#939598"/>
<path d="M10.1076 35.386C11.527 35.386 12.6776 34.249 12.6776 32.8466C12.6776 31.4441 11.527 30.3071 10.1076 30.3071C8.68824 30.3071 7.5376 31.4441 7.5376 32.8466C7.5376 34.249 8.68824 35.386 10.1076 35.386Z" fill="black"/>
</svg>
