<svg width="18" height="18" viewBox="0 0 18 18" fill="none" xmlns="http://www.w3.org/2000/svg">
<path d="M0.24067 5.86027H4.09642V18H0.24067V5.86027ZM2.16855 4.20284H2.14286C1.86614 4.22201 1.58863 4.18105 1.32777 4.08253C1.06691 3.98401 0.828358 3.83006 0.627107 3.63037C0.425856 3.43068 0.266264 3.18956 0.158369 2.92219C0.0504739 2.65482 -0.00338994 2.36697 0.000165189 2.07675C0.00372031 1.78653 0.0646177 1.50022 0.179027 1.23583C0.293436 0.971441 0.458881 0.734686 0.664958 0.54046C0.871034 0.346234 1.11328 0.198738 1.37647 0.107249C1.63965 0.0157595 1.91808 -0.0177433 2.19423 0.0088476C2.47094 -0.0124153 2.74886 0.0265063 3.01049 0.123162C3.27213 0.219817 3.51181 0.372112 3.71445 0.570462C3.91709 0.768811 4.0783 1.00892 4.18793 1.27567C4.29756 1.54242 4.35324 1.83003 4.35146 2.1204C4.34968 2.41078 4.29048 2.69762 4.17759 2.96287C4.0647 3.22813 3.90057 3.46606 3.69551 3.66167C3.49046 3.85728 3.24893 4.00635 2.98614 4.09949C2.72334 4.19263 2.44497 4.22781 2.16855 4.20284ZM17.9987 18H14.143V11.5074C14.143 9.87414 13.5855 8.76112 12.1907 8.76112C11.7557 8.7633 11.3321 8.90635 10.9779 9.17062C10.6238 9.4349 10.3565 9.80744 10.2127 10.2371C10.1119 10.5539 10.0683 10.8876 10.0843 11.2211V18H6.23109C6.23109 17.996 6.28246 6.99883 6.23109 5.86162H10.0868V7.58223C10.4354 6.94733 10.9435 6.42455 11.5561 6.07072C12.1686 5.71689 12.8621 5.54554 13.5611 5.5753C16.0978 5.5753 18 7.3107 18 11.0396L17.9987 18Z" fill="black"/>
</svg>
