<svg width="272" height="993" viewBox="0 0 272 993" fill="none" xmlns="http://www.w3.org/2000/svg">
<g opacity="0.3" clip-path="url(#clip0_78_3573)">
<path fill-rule="evenodd" clip-rule="evenodd" d="M57.5286 242.031L105.728 233.166L215.378 133.818L195.952 63.9062L152.422 72.0939L44.875 172.761L57.5376 242.04L57.5286 242.031Z" stroke="#231F20" stroke-miterlimit="10"/>
<path fill-rule="evenodd" clip-rule="evenodd" d="M100.133 161.117C99.5452 163.407 97.4778 165.287 95.5352 165.314C93.6104 165.34 92.55 163.505 93.1649 161.242C93.7797 158.988 95.8114 157.153 97.7184 157.108C99.6343 157.064 100.721 158.854 100.133 161.117Z" fill="#231F20"/>
<path d="M138.557 124.277L138.218 124.66C135.322 128.01 132.48 131.574 129.771 135.28C123.007 144.519 117.072 154.605 112.626 164.503L112.537 164.708L105.568 164.797L105.72 164.467C109.489 155.995 114.15 147.664 119.568 139.628C120.289 138.559 124.29 131.993 124.763 131.218C124.772 131.2 124.816 131.12 124.825 131.111C124.87 131.013 124.914 130.915 124.932 130.817C125.03 130.38 124.843 130.024 124.486 129.944C124.424 129.926 124.175 129.899 123.747 129.917C122.776 129.953 120.468 130.122 116.467 131.449C116.467 131.36 120.681 127.538 126.982 125.961C128.425 125.605 129.156 124.821 130.831 124.723L130.813 124.75L130.84 124.723L138.557 124.277Z" fill="#231F20"/>
<path fill-rule="evenodd" clip-rule="evenodd" d="M130.101 123.661C129.379 123.821 128.809 124.08 128.292 124.32C127.864 124.516 127.49 124.686 127.035 124.801C127.276 123.171 127.044 122.013 126.278 121.523C125.957 121.318 125.547 121.238 125.075 121.264C121.965 121.46 115.87 126.503 110.496 133.577C107.36 137.72 104.856 141.988 103.466 145.614C102.138 149.079 101.995 151.574 103.109 152.42C104.223 153.276 106.593 152.465 109.605 150.202C111.094 149.079 112.653 147.672 114.221 146.05C112.778 148.42 111.396 150.808 110.095 153.213C105.016 156.545 100.668 157.365 98.3062 155.298C96.2478 153.507 95.9893 149.819 97.522 144.972C98.9924 140.322 101.969 135.101 105.881 130.272C109.739 125.505 114.105 121.621 118.196 119.304C122.375 116.943 125.85 116.445 127.989 117.923C129.53 118.984 130.243 120.944 130.101 123.661Z" fill="#939598"/>
<path fill-rule="evenodd" clip-rule="evenodd" d="M157.476 168.449L162.431 168.413L161.673 169.34C161.433 169.643 155.56 176.797 149.777 180.236L149.635 180.325C148.449 181.029 146.4 182.259 142.951 182.606C142.488 182.651 140.153 182.945 138.344 182.312C137.097 181.875 136.081 181.136 135.368 180.441C134.816 179.907 134.352 179.274 133.969 178.561C132.276 175.381 132.356 170.605 134.121 165.09C133.737 165.064 133.363 165.028 133.016 164.974C132.846 164.948 128.872 164.351 128.524 160.698C127.829 153.446 135.6 141.561 139.253 135.983L139.726 135.253C140.064 134.736 140.287 134.389 140.447 134.13C140.554 133.952 140.688 133.578 139.966 133.845C139.61 133.979 138.995 134.246 138.015 134.879C132.133 138.665 125.976 144.563 120.611 151.521C120.442 151.744 120.273 151.967 120.104 152.19C123.107 146.88 126.466 141.65 130.075 136.643C138.398 128.856 146.881 124.544 152.941 125.408L153.609 125.497L153.119 126.13C151.39 128.33 142.96 138.728 136.785 151.887C136.232 153.045 135.101 155.21 134.628 157.624C134.343 159.085 134.762 160.279 135.243 160.618C135.395 160.716 135.573 160.778 135.787 160.796C136.375 159.504 137.034 158.203 137.756 156.929C137.845 156.76 138.736 155.326 139.521 154.061C139.61 153.909 140.162 153.08 140.162 153.08C140.554 152.51 140.973 151.922 141.401 151.343C142.738 149.552 144.154 147.877 145.616 146.345C151.925 139.734 158.911 136.153 163.554 137.142C164.578 137.364 165.273 137.899 165.826 138.398C166.441 138.959 166.967 140.117 167.082 140.607C168.072 144.706 163.643 151.815 156.514 157.491C155.997 157.9 153.146 159.958 152.736 160.235C147.808 163.504 142.88 164.297 141.401 164.467C140.278 167.05 139.806 168.832 139.449 170.694C138.977 173.135 138.79 176.37 140.599 177.884C142.31 179.31 145.384 178.748 149.251 176.289C151.996 174.329 154.776 171.692 157.289 168.681L157.476 168.449Z" fill="#939598"/>
<path d="M157.583 152.057V152.039L157.681 151.959C158.519 151.228 159.339 150.382 160.105 149.455C160.667 148.769 161.192 148.074 161.647 147.379C163.634 144.332 164.32 141.517 163.295 140.653C163.019 140.421 162.663 140.314 162.262 140.332C161.941 140.341 161.593 140.439 161.237 140.608C157.94 142.185 154.643 145.606 153.386 146.907L153.172 147.13C151.381 148.974 149.644 151.032 148.013 153.251C147.826 153.509 147.639 153.767 147.451 154.035L147.389 154.133C147.353 154.186 147.318 154.248 147.273 154.311C147.042 154.658 146.783 155.032 146.489 155.442C145.438 157.019 144.413 158.721 143.504 160.405C147.05 160.022 151.987 157.251 156.585 153.028C156.924 152.716 157.263 152.395 157.583 152.075V152.057Z" fill="white"/>
<path fill-rule="evenodd" clip-rule="evenodd" d="M27.882 163.764L27.98 163.675C28.1493 163.523 28.3275 163.372 28.4879 163.22C28.6305 163.095 28.7731 162.971 28.8978 162.855C30.3325 161.608 31.7672 160.325 33.1127 159.113C37.6128 155.086 42.095 151.023 47.0585 146.506C60.6121 134.194 74.0321 121.899 87.7462 109.345C96.8711 100.988 105.996 92.6225 115.112 84.2655L128.514 71.9795C132.782 68.0683 137.042 64.1571 141.319 60.2548L141.587 60.0143C142.781 58.9274 143.975 57.8315 145.169 56.7535C145.302 56.6287 145.445 56.504 145.588 56.3615C145.801 56.1655 146.015 55.9605 146.238 55.7645L146.283 55.7289L146.309 34.2217V33.9277L18.6145 151.887L18.5254 151.968L27.7929 163.657L27.8731 163.764H27.882Z" stroke="#231F20" stroke-miterlimit="10"/>
<path fill-rule="evenodd" clip-rule="evenodd" d="M219.175 40.7507L219.264 40.7329L222.873 16.2945L222.9 16.1074L150.07 31.2889L149.963 31.3068V54.5602L219.175 40.7507Z" stroke="#231F20" stroke-miterlimit="10"/>
<path fill-rule="evenodd" clip-rule="evenodd" d="M222.695 42.5962L244.269 108.24L244.331 108.436L252.03 101.442L226.429 20.7327L226.26 20.207L222.695 42.5695V42.5962Z" stroke="#231F20" stroke-miterlimit="10"/>
<path fill-rule="evenodd" clip-rule="evenodd" d="M33.5244 247.422L40.1185 246.201L25.647 166.828L18.9727 158.391L33.4976 247.297L33.5244 247.422Z" stroke="#231F20" stroke-miterlimit="10"/>
<path fill-rule="evenodd" clip-rule="evenodd" d="M271.938 105.932L240.223 0L147.255 19.8767L0.0445551 155.691L0.0801992 155.869L0 993.009H3.28817H17.8844V318.643L5.15057 259.396V182.784L21.3954 268.937H21.4667H21.4577V993H26.537V271.049L109.891 255.707L109.811 993H114.89L114.97 253.489L266.947 111.794V992.777H272.027V105.959L271.964 105.932H271.938ZM15.4963 318.892V990.871H5.07928L5.15057 270.737L15.5052 318.892H15.4963ZM15.0329 151.423L147.593 28.9732L226.625 12.1702L255.212 102.288L107.289 236.311L31.1886 250.308L15.0329 151.414V151.423Z" fill="#231F20"/>
<path fill-rule="evenodd" clip-rule="evenodd" d="M42.2461 277.686L42.157 277.704L42.2461 278.185V321.867L42.1659 321.885L42.2461 322.339V406.452H42.1926L42.2461 406.818V443.854H42.2015L42.2461 444.175V480.578H42.2104L42.2461 480.846V517.668L41.3906 517.775L41.649 519.788L42.2461 519.708V554.642L42.059 554.668L42.2461 556.254V592.043H42.2283L42.2461 592.23V627.876V627.903V702.893L41.6758 702.947L41.8718 704.969L42.255 704.933V775.896L41.6936 775.932L41.8273 777.954L42.2639 777.928V848.686H42.2194L42.2639 850.084V923.56H42.1748V925.591H42.255V992.972H93.7874V268.197L42.255 277V277.686H42.2461ZM91.7468 961.781H83.0051V925.466L91.7468 925.44V961.781ZM44.2778 850.672L52.9037 850.387V885.036H44.2778V850.672ZM54.9354 850.316L62.4919 850.067V885.036H54.9354V850.316ZM54.9354 628.714L62.4919 627.992V663.407L54.9354 664.164V628.714ZM52.9037 664.369L44.2778 665.233V629.73L52.9037 628.901V664.36V664.369ZM54.9354 321.725L62.4919 320.415V366.833L54.9354 368.062V321.725ZM52.9037 368.401L44.2778 369.799V323.569L52.9037 322.072V368.392V368.401ZM80.9823 512.679L73.6842 513.623V478.645L80.9823 477.718V512.679ZM83.014 477.469L91.7557 476.364V511.298L83.014 512.429V477.478V477.469ZM80.9823 661.536L73.6842 662.267V626.914L80.9823 626.219V661.536ZM83.014 626.023L91.7557 625.186V660.449L83.014 661.331V626.023ZM80.9823 923.453L73.6842 923.48V887.085H80.9823V923.453ZM83.014 887.085H91.7557V923.408L83.014 923.435V887.076V887.085ZM64.5147 923.506V887.067H71.6525V923.48L64.5147 923.506ZM71.6525 925.511V961.808H64.5147V925.538L71.6525 925.511ZM71.6525 441.894V476.854L64.5147 477.754V442.856L71.6525 441.885V441.894ZM64.5147 440.816V405.25L71.6525 404.207V439.845L64.5147 440.816ZM71.6525 478.903V513.881L64.5147 514.799V479.803L71.6525 478.903ZM71.6525 515.931V551.105L64.5147 551.969V516.857L71.6525 515.939V515.931ZM71.6525 553.145V588.693L64.5147 589.504V554L71.6525 553.136V553.145ZM71.6525 590.742V625.079L64.5147 625.765V591.562L71.6525 590.751V590.742ZM71.6525 627.11V662.471L64.5147 663.193V627.796L71.6525 627.11ZM71.6525 664.521V700.078L64.5147 700.764V665.233L71.6525 664.512V664.521ZM71.6525 702.118V736.802L64.5147 737.283V702.804L71.6525 702.118ZM71.6525 738.842V774.025L64.5147 774.48V739.315L71.6525 738.833V738.842ZM71.6525 776.057V810.206L64.5147 810.509V776.511L71.6525 776.057ZM71.6525 812.237V847.741L64.5147 847.973V812.54L71.6525 812.237ZM71.6525 849.773V885.054H64.5147V850.013L71.6525 849.781V849.773ZM73.6842 885.054V849.701L80.9823 849.461V885.054H73.6842ZM73.6842 847.67V812.148L80.9823 811.836V847.429L73.6842 847.67ZM73.6842 810.117V775.923L80.9823 775.451V809.805L73.6842 810.117ZM73.6842 773.892V738.7L80.9823 738.21V773.419L73.6842 773.892ZM73.6842 736.668V701.922L80.9823 701.218V736.178L73.6842 736.668ZM73.6842 699.882V664.316L80.9823 663.585V699.187L73.6842 699.891V699.882ZM73.6842 624.883V590.511L80.9823 589.673V624.179L73.6842 624.874V624.883ZM73.6842 588.461V552.904L80.9823 552.022V587.633L73.6842 588.47V588.461ZM73.6842 550.855V515.663L80.9823 514.719V549.973L73.6842 550.855ZM73.6842 476.596V441.609L80.9823 440.611V475.669L73.6842 476.596ZM73.6842 439.569V403.913L80.9823 402.844V438.571L73.6842 439.569ZM73.6842 401.855V367.073L80.9823 365.888V400.795L73.6842 401.864V401.855ZM71.6525 402.158L64.5147 403.201V368.57L71.6525 367.412V402.167V402.158ZM64.5147 366.503V320.059L71.6525 318.82V365.336L64.5147 366.494V366.503ZM64.5147 318.009V275.69L71.6525 274.389V316.771L64.5147 318.009ZM62.4919 276.055V318.357L54.9354 319.667V277.436L62.4919 276.055ZM62.4919 368.891V403.495L54.9354 404.599V370.129L62.4919 368.9V368.891ZM62.4919 405.544V441.092L54.9354 442.125V406.648L62.4919 405.544ZM62.4919 443.141V478.012L54.9354 478.966V444.166L62.4919 443.132V443.141ZM62.4919 480.061V515.057L54.9354 516.029V481.015L62.4919 480.061ZM62.4919 517.107V552.209L54.9354 553.118V518.087L62.4919 517.115V517.107ZM62.4919 554.258V589.744L54.9354 590.609V555.167L62.4919 554.258ZM62.4919 591.785V625.952L54.9354 626.674V592.649L62.4919 591.785ZM62.4919 665.438V700.96L54.9354 701.69V666.204L62.4919 665.447V665.438ZM62.4919 703V737.417L54.9354 737.925V703.722L62.4919 702.991V703ZM62.4919 739.457V774.613L54.9354 775.103V739.965L62.4919 739.457ZM62.4919 776.645V810.598L54.9354 810.919V777.135L62.4919 776.645ZM62.4919 812.629V848.044L54.9354 848.294V812.959L62.4919 812.638V812.629ZM62.4919 887.067V923.515L54.9354 923.542V887.058H62.4919V887.067ZM62.4919 925.547V961.825H54.9354V925.573L62.4919 925.547ZM62.4919 963.848V990.87H54.9354V963.866H62.4919V963.848ZM64.5147 963.848H71.6525V990.87H64.5147V963.848ZM73.6842 963.839H80.9823V990.87H73.6842V963.839ZM73.6842 961.808V925.502L80.9823 925.475V961.79H73.6842V961.808ZM91.7468 885.062H83.0051V849.389L91.7468 849.104V885.062ZM91.7468 847.073L83.0051 847.358V811.747L91.7468 811.373V847.073ZM91.7468 809.351L83.0051 809.725V775.335L91.7468 774.774V809.36V809.351ZM91.7468 772.733L83.0051 773.295V738.076L91.7468 737.488V772.733ZM91.7468 735.457L83.0051 736.045V701.031L91.7468 700.194V735.466V735.457ZM91.7468 698.144L83.0051 698.982V663.371L91.7468 662.489V698.144ZM91.7468 623.154L83.0051 623.992V589.441L91.7468 588.444V623.154ZM91.7468 586.403L83.0051 587.401V551.782L91.7468 550.73V586.403ZM91.7468 548.681L83.0051 549.733V514.46L91.7468 513.329V548.672V548.681ZM91.7468 474.315L83.0051 475.42V440.344L91.7468 439.15V474.315ZM91.7468 437.101L83.0051 438.294V402.55L91.7468 401.276V437.11V437.101ZM91.7468 399.218L83.0051 400.492V365.55L91.7468 364.124V399.209V399.218ZM91.7468 362.075L83.0051 363.501V316.86L91.7468 315.346V362.075ZM80.9823 363.83L73.6842 365.015V318.473L80.9823 317.208V363.821V363.83ZM73.6842 316.415V274.015L80.9823 272.688V315.15L73.6842 316.415ZM44.2778 279.378L52.9037 277.81V320.023L44.2778 321.52V279.387V279.378ZM44.2778 371.857L52.9037 370.459V404.902L44.2778 406.158V371.857ZM44.2778 408.208L52.9037 406.951V442.411L44.2778 443.587V408.217V408.208ZM44.2778 445.627L52.9037 444.451V479.233L44.2778 480.329V445.636V445.627ZM44.2778 482.369L52.9037 481.273V516.296L44.2778 517.409V482.369ZM44.2778 519.459L52.9037 518.345V553.368L44.2778 554.41V519.468V519.459ZM44.2778 556.45L52.9037 555.408V590.84L44.2778 591.829V556.459V556.45ZM44.2778 593.869L52.9037 592.881V626.87L44.2778 627.698V593.869ZM44.2778 667.274L52.9037 666.409V701.886L44.2778 702.715V667.282V667.274ZM52.9037 703.927V738.067L44.2778 738.646V704.755L52.9037 703.927ZM44.2778 740.678L52.9037 740.099V775.228L44.2778 775.78V740.678ZM52.9037 777.259V811.008L44.2778 811.373V777.812L52.9037 777.259ZM44.2778 813.405L52.9037 813.039V848.356L44.2778 848.641V813.405ZM44.2778 887.049H52.9037V923.542L44.2778 923.569V887.04V887.049ZM52.9037 925.582V961.834H44.2778V925.609L52.9037 925.582ZM44.2778 963.875H52.9037V990.87H44.2778V963.875ZM83.014 990.87V963.83H91.7557V990.87H83.014ZM91.7468 313.287L83.0051 314.802V272.322L91.7468 270.728V313.287Z" fill="#231F20"/>
<path fill-rule="evenodd" clip-rule="evenodd" d="M138.388 299.889L138.406 993L242.7 992.777L241.212 204.479L138.379 299.889H138.388ZM227.899 219.562L239.421 208.835L239.448 226.609L227.89 226.476V219.571L227.899 219.562ZM227.881 227.919L239.448 228.16L239.519 268.581L227.846 268.323L227.881 227.919ZM227.854 269.873L239.528 270.131L239.599 312.887H239.457L227.819 312.629L227.854 269.882V269.873ZM227.819 314.17L239.546 314.429H239.608L239.688 362.254H239.564L227.783 361.996L227.819 314.17ZM227.774 363.555L239.688 363.822L239.751 399.727H239.697L227.739 399.451L227.765 363.564L227.774 363.555ZM227.748 400.992L239.706 401.259V401.241H239.76L239.822 437.146H239.706L227.73 436.87L227.756 400.983L227.748 400.992ZM227.712 438.429L239.715 438.705H239.822L239.884 474.592H239.608L227.694 474.325L227.721 438.438L227.712 438.429ZM227.685 475.866L239.599 476.133V476.16H239.884L239.947 512.02H239.626L227.65 511.744L227.676 475.857L227.685 475.866ZM227.658 513.303L239.751 513.579H239.956L240.018 549.021L227.632 548.789L227.658 513.312V513.303ZM227.623 550.33L240.009 550.562V550.544L240.071 586.28H239.697L227.596 586.066L227.623 550.321V550.33ZM227.596 587.625L239.697 587.839H240.08L240.143 623.628H239.982L227.569 623.423L227.596 587.625ZM227.569 624.973L240.045 625.187H240.143L240.205 660.673H240.054L227.534 660.539L227.56 624.982L227.569 624.973ZM227.534 662.089L240.054 662.223H240.205L240.268 698.448H239.938L227.507 698.252L227.534 662.098V662.089ZM227.507 699.794L239.938 699.998H239.956H240.071H240.268L240.33 735.413H240.08L227.471 735.253L227.498 699.794H227.507ZM227.471 736.803L239.76 736.963H240.33L240.392 772.369H239.893L227.445 772.307L227.471 736.803ZM227.445 773.857L239.893 773.928H240.401L240.464 809.779H240.116L227.418 809.664L227.445 773.848V773.857ZM227.418 811.223L240.098 811.339H240.464L240.526 847.617H239.982L227.382 847.466L227.409 811.232L227.418 811.223ZM227.382 849.007L239.555 849.15H240.036H240.098H240.535L240.597 884.52H240.116H227.364L227.391 848.989L227.382 849.007ZM227.355 886.088H240.107L240.597 886.079L240.66 923.133H240.107H227.329L227.355 886.088ZM227.32 924.683H240.098L240.651 924.674L240.713 961.301H239.938H227.284L227.311 924.674L227.32 924.683ZM226.233 221.112V226.449L220.565 226.387L226.233 221.112ZM215.014 886.124H225.734L225.707 923.16H214.987L215.014 886.124ZM202.832 886.132H213.463L213.436 923.169H202.806L202.832 886.132ZM191.132 886.141H201.282L201.246 923.177H191.097L191.123 886.141H191.132ZM179.236 886.15H189.573L189.546 923.186H179.2L179.236 886.15ZM167.251 886.15H177.685L177.65 923.186H167.215L167.251 886.15ZM153.786 990.871L140.723 990.853V962.895H153.804L153.777 990.871H153.786ZM153.804 961.336H140.714V924.737H153.84L153.804 961.336ZM153.84 923.177H140.714V886.141H153.875L153.84 923.177ZM153.875 884.591H140.705V847.617L153.911 847.769L153.875 884.591ZM153.911 846.219L140.901 846.067H140.812H140.714V810.18H140.821L153.946 810.296L153.911 846.219ZM153.938 808.737L140.696 808.621V773.171L153.973 773.242L153.938 808.728V808.737ZM153.973 771.701L140.696 771.63V735.297H140.883L154.009 735.458L153.973 771.701ZM154.009 733.916L140.687 733.756V697.869L154.044 698.083L154.009 733.925V733.916ZM154.044 696.524L140.687 696.31V660.842L154.071 660.976L154.044 696.515V696.524ZM154.071 659.425L140.678 659.292V622.977L154.107 623.191L154.071 659.416V659.425ZM154.107 621.65L140.678 621.436V585.549L154.143 585.781L154.107 621.659V621.65ZM154.143 584.221L140.669 583.99V548.103L154.169 548.352L154.134 584.221H154.143ZM154.169 546.802L140.66 546.553V510.666L154.196 510.96L154.16 546.802H154.169ZM154.205 509.41L140.66 509.116V473.229L154.241 473.523L154.205 509.41ZM154.241 471.973L140.66 471.679V471.794V435.792L154.276 436.086L154.241 471.973ZM154.276 434.527L140.66 434.233V434.509L140.651 398.346L154.312 398.64L154.285 434.527H154.276ZM154.303 397.09L140.651 396.796V396.822H140.642V360.909L154.339 361.212L154.312 397.099L154.303 397.09ZM154.339 359.653L140.66 359.35V359.376H140.642V311.569L154.383 311.863L154.339 359.653ZM154.383 310.313L141.177 310.028V310.01H140.633V300.815L154.392 288.004L154.374 310.313H154.383ZM155.328 924.754H165.664L165.638 961.354H155.292L155.328 924.754ZM165.673 990.88H155.328L155.354 962.886H165.7L165.673 990.88ZM165.664 923.195H155.328L155.363 886.159H165.7L165.664 923.195ZM165.7 884.6H155.363L155.399 847.813L165.736 847.992L165.709 884.6H165.7ZM165.736 846.441L155.399 846.263L155.435 810.332L165.771 810.465L165.736 846.441ZM165.771 808.915L155.435 808.781L155.461 773.287L165.798 773.376L165.771 808.915ZM165.798 771.826L155.461 771.745L155.497 735.52L165.834 735.707L165.807 771.826H165.798ZM165.834 734.157L155.497 733.97L155.533 698.136L165.869 698.377L165.843 734.157H165.834ZM165.861 696.827L155.524 696.586L155.55 661.029L165.887 661.18L165.861 696.818V696.827ZM165.896 659.63L155.559 659.479L155.595 623.262L165.932 623.512L165.905 659.63H165.896ZM165.932 621.961L155.595 621.712L155.631 585.834L165.967 586.092L165.932 621.961ZM165.959 584.542L155.622 584.284L155.657 548.415L165.994 548.691L165.967 584.542H165.959ZM165.994 547.141L155.657 546.865L155.684 511.031L166.021 511.361L165.985 547.141H165.994ZM166.03 509.811L155.693 509.481L155.729 473.594L166.065 473.924L166.039 509.811H166.03ZM166.057 472.374L155.72 472.044L155.755 436.157L166.092 436.487L166.057 472.374ZM166.092 434.937L155.755 434.607L155.782 398.72L166.119 399.05L166.083 434.937H166.092ZM166.128 397.499L155.791 397.17L155.818 361.283L166.155 361.613L166.128 397.499ZM166.155 360.062L155.818 359.733L155.862 311.943L166.19 312.264L166.146 360.062H166.155ZM166.288 276.929L166.261 310.687L155.925 310.357L155.943 286.551L155.925 286.569L166.288 276.911H166.279L166.288 276.929ZM167.215 924.746H177.65L177.623 961.354H167.188L167.224 924.746H167.215ZM177.668 990.897H167.233L167.26 962.886H177.694L177.668 990.897ZM177.685 884.591H167.251L167.286 848.018L177.721 848.197L177.685 884.591ZM177.721 846.646L167.286 846.468L167.313 810.483L177.748 810.617L177.721 846.646ZM177.757 809.067L167.322 808.933L167.349 773.394L177.783 773.483L177.757 809.076V809.067ZM177.783 771.924L167.349 771.834L167.375 735.734L177.81 735.921L177.783 771.924ZM177.819 734.371L167.384 734.184L167.411 698.413L177.846 698.653L177.819 734.371ZM177.846 697.103L167.411 696.862L167.438 661.207L177.873 661.368L177.837 697.112L177.846 697.103ZM177.881 659.808L167.447 659.648L167.482 623.547L177.917 623.797L177.89 659.808H177.881ZM177.917 622.247L167.482 621.997L167.509 586.137L177.944 586.404L177.917 622.255V622.247ZM177.944 584.845L167.509 584.587L167.536 548.736L177.971 549.021L177.944 584.845ZM177.979 547.47L167.545 547.185L167.571 511.414L178.006 511.744L177.979 547.462V547.47ZM178.006 510.194L167.58 509.864L167.607 473.977L178.042 474.307L178.015 510.194H178.006ZM178.042 472.757L167.607 472.427L167.634 436.54L178.06 436.87L178.033 472.757H178.042ZM178.078 435.32L167.652 434.99L167.678 399.103L178.104 399.433L178.078 435.32ZM178.104 397.883L167.678 397.553L167.705 361.666L178.131 361.996L178.104 397.883ZM178.14 360.446L167.714 360.116L167.759 312.317L178.184 312.647L178.14 360.446ZM178.247 311.061L167.821 310.731L167.848 275.477L175.342 268.492L178.282 268.555L178.247 311.052V311.061ZM178.247 267.174H176.215L178.318 265.231L178.247 267.174ZM179.209 924.746H189.555L189.528 961.354H179.182L179.209 924.746ZM189.564 990.906H179.218L179.245 962.878H189.591L189.573 990.906H189.564ZM189.582 884.591H179.245L179.272 848.223L189.608 848.401L189.582 884.591ZM189.617 846.842L179.281 846.664L179.307 810.635L189.644 810.768L189.617 846.842ZM189.644 809.218L179.307 809.084L179.334 773.483L189.671 773.572L189.644 809.218ZM189.68 772.022L179.343 771.932L179.37 735.948L189.706 736.135L189.68 772.022ZM189.706 734.593L179.37 734.406L179.396 698.698L189.733 698.938L189.706 734.593ZM189.742 697.379L179.405 697.139L179.432 661.385L189.769 661.537L189.742 697.379ZM189.769 659.987L179.432 659.835L179.459 623.841L189.796 624.091L189.769 659.995V659.987ZM189.804 622.541L179.468 622.291L179.494 586.44L189.831 586.698L189.804 622.541ZM189.831 585.148L179.494 584.89L179.521 549.065L189.858 549.341L189.831 585.148ZM189.867 547.791L179.53 547.515L179.557 511.797L189.894 512.127L189.867 547.791ZM189.894 510.577L179.557 510.247L179.592 474.36L189.929 474.69L189.894 510.577ZM189.929 473.14L179.592 472.81L179.619 436.923L189.956 437.253L189.929 473.14ZM189.965 435.694L179.628 435.364L179.655 399.477L189.992 399.807L189.965 435.694ZM189.992 398.257L179.655 397.927L179.69 362.04L190.027 362.37L190 398.257H189.992ZM190.027 360.82L179.69 360.49L179.735 312.691L190.072 313.021L190.036 360.829L190.027 360.82ZM190.134 311.435L179.806 311.114L179.842 268.465L190.179 268.715L190.143 311.435H190.134ZM190.17 267.165L179.833 266.96V264.332V264.314L190.179 254.674V267.147L190.17 267.165ZM191.105 924.737H201.255L201.219 961.345H191.07L191.097 924.737H191.105ZM201.264 990.924H191.114L191.132 962.878H201.282L201.264 990.924ZM201.282 884.582H191.132L191.159 848.428L201.309 848.597L201.282 884.582ZM201.317 847.047L191.168 846.878L191.195 810.795L201.344 810.92L201.317 847.047ZM201.344 809.37L191.195 809.245L191.221 773.599L201.371 773.679L201.344 809.378V809.37ZM201.38 772.12L191.23 772.039L191.257 736.17L201.407 736.357L201.38 772.12ZM201.407 734.798L191.257 734.611L191.284 698.965L201.433 699.206L201.407 734.798ZM201.442 697.655L191.293 697.415L191.319 661.564L201.469 661.715L201.442 697.655ZM201.469 660.165L191.319 660.013L191.346 624.126L201.496 624.376L201.469 660.174V660.165ZM201.505 622.817L191.355 622.576L191.382 586.743L201.531 587.001L201.505 622.826V622.817ZM201.531 585.442L191.391 585.184L191.417 549.377L201.567 549.653L201.54 585.442H201.531ZM201.567 548.103L191.417 547.827L191.444 512.172L201.585 512.492L201.558 548.094L201.567 548.103ZM201.594 510.951L191.453 510.63L191.48 474.743L201.62 475.064L201.594 510.951ZM201.629 473.514L191.489 473.193L191.515 437.306L201.656 437.627L201.629 473.514ZM201.656 436.068L191.515 435.747L191.542 399.86L201.683 400.181L201.656 436.068ZM201.692 398.631L191.551 398.31L191.578 362.423L201.718 362.744L201.692 398.631ZM201.718 361.194L191.578 360.873L191.622 313.066L201.763 313.386L201.727 361.203L201.718 361.194ZM201.763 311.827L191.622 311.506L191.658 268.786L201.799 269.098L201.763 311.827ZM201.888 243.983L201.87 267.521L191.729 267.209V254.335H191.738V253.23L201.897 243.778V243.983H201.888ZM202.806 924.728H213.436L213.41 961.345H202.779L202.806 924.728ZM213.445 990.942H202.815L202.832 962.878H213.463L213.445 990.942ZM213.463 884.573H202.841L202.868 848.624L213.49 848.802L213.463 884.573ZM213.49 847.252L202.868 847.074L202.895 810.946L213.517 811.08L213.49 847.252ZM213.526 809.521L202.904 809.387L202.93 773.688L213.552 773.777L213.526 809.53V809.521ZM213.552 772.218L202.93 772.129L202.957 736.375L213.579 736.571L213.552 772.218ZM213.588 735.021L202.966 734.825L202.993 699.241L213.615 699.491L213.588 735.021ZM213.615 697.94L202.993 697.691L203.019 661.742L213.641 661.902L213.615 697.94ZM213.65 660.352L203.028 660.191L203.055 624.412L213.677 624.67L213.65 660.352ZM213.677 623.111L203.055 622.852L203.082 587.028L213.704 587.295L213.677 623.111ZM213.704 585.745L203.082 585.478L203.109 549.689L213.731 549.974L213.704 585.736V585.745ZM213.739 548.433L203.117 548.148L203.144 512.555L213.766 512.893L213.739 548.433ZM213.766 511.334L203.144 510.996L203.171 475.109L213.793 475.447L213.766 511.334ZM213.802 473.897L203.18 473.559L203.207 437.672L213.829 438.01L213.802 473.897ZM213.829 436.46L203.207 436.121L203.233 400.235L213.855 400.573L213.829 436.46ZM213.864 399.023L203.242 398.684L203.269 362.798L213.891 363.136L213.864 399.023ZM213.891 361.586L203.269 361.247L203.305 313.431L213.927 313.769L213.891 361.586ZM213.935 312.21L203.314 311.881L203.349 269.151L213.962 269.481L213.927 312.219L213.935 312.21ZM214.078 232.472L214.06 232.49L214.033 267.895L203.412 267.566L203.429 242.566V242.334L214.078 232.418V232.463V232.472ZM214.987 924.719H225.707L225.68 961.336H214.96L214.987 924.719ZM225.716 990.951H214.996L215.014 962.869H225.734L225.716 990.951ZM225.734 884.564H215.014L215.04 848.829L225.76 849.007L225.734 884.564ZM225.769 847.457L215.049 847.279L215.076 811.098L225.796 811.232L225.769 847.457ZM225.796 809.672L215.076 809.539L215.103 773.786L225.823 773.875L225.796 809.681V809.672ZM225.823 772.316L215.103 772.227L215.13 736.598L225.849 736.794L225.823 772.316ZM225.858 735.244L215.138 735.048L215.165 699.526L225.885 699.776L225.858 735.244ZM225.885 698.225L215.165 697.976L215.192 661.92L225.912 662.08L225.885 698.217V698.225ZM225.921 660.53L215.201 660.37L215.228 624.697L225.948 624.955L225.921 660.53ZM225.948 623.414L215.228 623.155L215.254 587.34L225.974 587.607L225.948 623.405V623.414ZM225.974 586.057L215.254 585.79L215.281 550.027L226.001 550.313L225.974 586.057ZM226.01 548.762L215.29 548.477L215.317 512.947L226.037 513.285L226.01 548.771V548.762ZM226.037 511.726L215.317 511.379L215.343 475.492L226.063 475.83L226.037 511.717V511.726ZM226.063 474.289L215.343 473.951L215.37 438.064L226.09 438.402L226.063 474.289ZM226.099 436.852L215.379 436.513L215.406 400.627L226.126 400.965L226.099 436.852ZM226.126 399.415L215.406 399.076L215.433 363.19L226.144 363.528L226.117 399.415H226.126ZM226.161 361.978L215.45 361.639L215.486 313.814L226.197 314.153L226.161 361.978ZM226.197 312.593L215.486 312.255L215.522 269.517L226.233 269.846L226.197 312.593ZM226.304 268.278L215.593 267.949L215.62 231.082V231.011L219.024 227.848H219.451L226.349 227.928L226.313 268.278H226.304ZM226.946 990.951H227.275L227.293 962.86H240.107H240.731L240.775 990.978L226.946 990.96V990.951Z" fill="#231F20"/>
</g>
<defs>
<clipPath id="clip0_78_3573">
<rect width="272" height="993" fill="white"/>
</clipPath>
</defs>
</svg>
