<svg width="18" height="18" viewBox="0 0 18 18" fill="none" xmlns="http://www.w3.org/2000/svg">
<path d="M17.1143 0.5C17.1393 0.5 17.2046 0.505097 17.2744 0.525391C17.3452 0.54602 17.3879 0.572458 17.4082 0.592773L17.416 0.600586C17.4333 0.617407 17.4505 0.643308 17.4658 0.68457C17.4798 0.722222 17.4892 0.765689 17.4951 0.8125C17.4937 0.850408 17.49 0.886151 17.4902 0.915039C17.4908 0.976375 17.4931 1.04809 17.4951 1.11523C17.4994 1.25854 17.5029 1.39734 17.4961 1.51172C17.2783 4.26499 16.4278 10.4686 15.8516 14.3486L15.624 15.8545C15.5129 16.5716 15.3525 16.9974 15.2031 17.2373C15.0671 17.4557 14.9623 17.4885 14.9248 17.4951C14.6225 17.5229 14.3247 17.4103 13.9512 17.1475C13.7624 17.0146 13.569 16.8544 13.3555 16.6719C13.147 16.4937 12.9163 16.2919 12.6748 16.0996L11.6816 15.3018C11.3773 15.0545 11.0929 14.8214 10.8096 14.5889C10.2427 14.1236 9.67928 13.6608 8.96973 13.0977L8.96875 13.0967C8.58883 12.7961 8.418 12.5688 8.34766 12.4072C8.28733 12.2685 8.28997 12.1539 8.33984 12.0176C8.39836 11.8577 8.5219 11.6721 8.72266 11.4287C8.82055 11.3101 8.92774 11.188 9.0459 11.0527C9.16234 10.9194 9.28686 10.7744 9.41113 10.6221C9.54451 10.4631 10.6434 9.25372 11.7549 7.99023C12.308 7.36143 12.8591 6.72473 13.2783 6.21777C13.4873 5.96505 13.6682 5.73945 13.8008 5.56055C13.8666 5.47173 13.9258 5.3879 13.9717 5.31445C13.9945 5.27791 14.0179 5.23799 14.0381 5.19727C14.0466 5.18019 14.0578 5.1552 14.0693 5.125L14.0996 5.02051L14.1016 5.0127C14.1252 4.88253 14.1216 4.74737 14.0918 4.61816C14.062 4.48925 14.0053 4.36383 13.9199 4.25488L13.9014 4.23145L13.8809 4.20996L13.8154 4.15234C13.6616 4.03063 13.4912 3.99808 13.3584 3.99805C13.2998 3.99805 13.2359 4.00583 13.1855 4.01367L13.0928 4.03027L13.0703 4.03418L13.0479 4.04004C12.9838 4.05724 12.9342 4.08408 12.9199 4.0918C12.8966 4.10435 12.8749 4.11818 12.8564 4.12988C12.819 4.15366 12.7749 4.18371 12.7285 4.2168C12.6348 4.2837 12.5087 4.37832 12.3525 4.49805C12.0387 4.73868 11.5889 5.09193 11.0049 5.55762C10.4204 6.02369 9.69962 6.60436 8.84082 7.29785L5.85156 9.71875C5.21748 10.2344 4.73937 10.4203 4.3916 10.4072H4.38965C4.16061 10.3996 3.78175 10.3174 3.32324 10.1787C2.87771 10.0439 2.39789 9.86917 1.98438 9.70312L1.97656 9.7002L1.25 9.4248C1.04577 9.34454 0.877111 9.27046 0.738281 9.18848C0.609059 9.11213 0.550734 9.05279 0.525391 9.01465C0.517004 9.00201 0.509499 8.98838 0.504883 8.96973L0.501953 8.89355V8.8916C0.502191 8.88936 0.504196 8.87221 0.525391 8.83789C0.549163 8.79943 0.593064 8.74505 0.669922 8.67676C0.787561 8.57226 0.959843 8.45558 1.19531 8.32715L1.45215 8.19434L1.45898 8.19141L1.46484 8.18848C5.10465 6.28133 7.8243 4.8602 9.63379 3.93262L11.1406 3.16992L11.1426 3.16895C13.4542 2.00694 14.8335 1.33216 15.7119 0.948242C16.6015 0.559463 16.9121 0.500094 17.1143 0.5Z" fill="black" stroke="black"/>
</svg>
