<svg width="144" height="16" viewBox="0 0 144 16" fill="none" xmlns="http://www.w3.org/2000/svg">
<path d="M0.113249 13L3 15.8868L5.88675 13L3 10.1132L0.113249 13ZM143 13.5L143.5 13.5L143.5 12.5L143 12.5L143 13.5ZM3 13L3 13.5L143 13.5L143 13L143 12.5L3 12.5L3 13Z" fill="#939393"/>
<path d="M103.571 5.62785C103.081 5.62785 102.642 5.51752 102.255 5.29684C101.868 5.07616 101.559 4.75364 101.335 4.33775C101.112 3.92186 101 3.41261 101 2.82696C101 2.24132 101.112 1.73207 101.335 1.30769C101.559 0.8918 101.868 0.569269 102.255 0.348592C102.642 0.127916 103.081 0.0175781 103.571 0.0175781C104.061 0.0175781 104.499 0.127916 104.886 0.348592C105.273 0.569269 105.574 0.8918 105.806 1.30769C106.03 1.72358 106.141 2.23284 106.141 2.82696C106.141 3.42109 106.03 3.92186 105.806 4.33775C105.583 4.75364 105.273 5.07616 104.886 5.29684C104.499 5.51752 104.061 5.62785 103.571 5.62785ZM103.571 4.67725C103.863 4.67725 104.121 4.60935 104.345 4.46506C104.568 4.32077 104.74 4.11707 104.86 3.83698C104.981 3.55689 105.05 3.21739 105.05 2.81847C105.05 2.41956 104.989 2.07157 104.86 1.79997C104.74 1.51988 104.559 1.31617 104.345 1.17189C104.121 1.0276 103.863 0.959697 103.571 0.959697C103.278 0.959697 103.02 1.0276 102.797 1.17189C102.573 1.31617 102.401 1.51988 102.272 1.79997C102.143 2.08006 102.083 2.41956 102.083 2.81847C102.083 3.21739 102.143 3.55689 102.272 3.83698C102.401 4.11707 102.573 4.32077 102.797 4.46506C103.02 4.60935 103.278 4.67725 103.571 4.67725Z" fill="black"/>
<path d="M111.368 0.0849609V5.55095H110.422L107.903 1.95223H107.851V5.55095H106.776V0.0849609H107.731L110.241 3.68368H110.293V0.0849609H111.368Z" fill="black"/>
<path d="M112.135 5.55095V0.0849609H115.797V0.967668H113.209V2.35114H115.608V3.22536H113.209V4.66824H115.806V5.55095H112.135Z" fill="black"/>
<path d="M120.603 5.62785C120.104 5.62785 119.666 5.51751 119.279 5.28835C118.901 5.05919 118.608 4.73666 118.393 4.32077C118.178 3.90488 118.075 3.40412 118.075 2.82696C118.075 2.24981 118.187 1.74055 118.402 1.32466C118.617 0.900285 118.909 0.577758 119.287 0.357082C119.666 0.127918 120.087 0.0175781 120.569 0.0175781C120.869 0.0175781 121.145 0.0600172 121.411 0.144893C121.669 0.229768 121.901 0.357084 122.108 0.518347C122.314 0.679611 122.477 0.874823 122.615 1.08701C122.744 1.30769 122.838 1.55383 122.881 1.81694H121.996C121.944 1.65568 121.875 1.51139 121.789 1.38408C121.703 1.25676 121.6 1.14643 121.48 1.06155C121.36 0.968187 121.222 0.900289 121.076 0.857851C120.93 0.815413 120.758 0.789949 120.577 0.789949C120.268 0.789949 119.992 0.866334 119.743 1.01911C119.494 1.17189 119.296 1.40105 119.15 1.70661C119.004 2.01216 118.935 2.37712 118.935 2.81847C118.935 3.25983 119.004 3.62479 119.15 3.93034C119.296 4.23589 119.494 4.46506 119.743 4.61784C119.992 4.77062 120.285 4.85549 120.603 4.85549C120.904 4.85549 121.162 4.79608 121.377 4.67725C121.6 4.55843 121.772 4.38867 121.893 4.17648C122.013 3.95581 122.073 3.70118 122.073 3.40412L122.288 3.44655H120.715V2.75057H122.907V3.37865C122.907 3.84547 122.804 4.24438 122.606 4.5754C122.408 4.9149 122.133 5.16953 121.789 5.35625C121.445 5.54298 121.041 5.62785 120.594 5.62785" fill="black"/>
<path d="M123.638 5.55065V0.0761719H125.633C126.063 0.0761719 126.415 0.152562 126.699 0.29685C126.983 0.441139 127.198 0.644841 127.335 0.907955C127.481 1.17107 127.55 1.46813 127.55 1.80763C127.55 2.14714 127.481 2.4442 127.335 2.69883C127.189 2.95346 126.974 3.14867 126.69 3.29296C126.407 3.42876 126.046 3.50515 125.616 3.50515H124.128V2.7837H125.538C125.805 2.7837 126.028 2.74976 126.192 2.67337C126.355 2.59698 126.484 2.48664 126.561 2.34235C126.639 2.19807 126.682 2.02831 126.682 1.82461C126.682 1.62091 126.639 1.44267 126.561 1.29838C126.484 1.15409 126.355 1.03527 126.192 0.958879C126.02 0.874003 125.805 0.840053 125.53 0.840053H124.498V5.5846H123.638V5.55065ZM126.785 5.55065L125.444 3.08077H126.398L127.765 5.55065H126.785Z" fill="black"/>
<path d="M130.585 5.62725C130.103 5.62725 129.682 5.51691 129.304 5.28774C128.926 5.05858 128.625 4.74454 128.41 4.32016C128.195 3.90427 128.083 3.40351 128.083 2.81787C128.083 2.23223 128.195 1.73146 128.41 1.30708C128.625 0.882707 128.926 0.56018 129.304 0.339504C129.682 0.118827 130.112 0 130.585 0C131.058 0 131.496 0.11034 131.866 0.339504C132.244 0.56018 132.537 0.882707 132.76 1.30708C132.975 1.73146 133.087 2.23223 133.087 2.81787C133.087 3.40351 132.975 3.90427 132.76 4.32016C132.545 4.73605 132.244 5.05858 131.866 5.28774C131.488 5.50842 131.066 5.62725 130.585 5.62725ZM130.585 4.84639C130.903 4.84639 131.178 4.77001 131.428 4.61723C131.677 4.46446 131.875 4.23529 132.012 3.92974C132.158 3.62418 132.227 3.25922 132.227 2.81787C132.227 2.37652 132.158 2.00306 132.012 1.69751C131.866 1.39196 131.677 1.1628 131.428 1.01002C131.178 0.857245 130.894 0.780854 130.585 0.780854C130.275 0.780854 129.992 0.857245 129.742 1.01002C129.493 1.1628 129.295 1.39196 129.149 1.69751C129.003 2.00306 128.934 2.37652 128.934 2.81787C128.934 3.25922 129.003 3.62418 129.149 3.92974C129.295 4.23529 129.493 4.46446 129.742 4.61723C129.992 4.77001 130.275 4.84639 130.585 4.84639Z" fill="black"/>
<path d="M137.349 0.0849609H138.209V3.6752C138.209 4.05714 138.115 4.39664 137.934 4.69371C137.754 4.99077 137.496 5.21993 137.16 5.38968C136.825 5.55944 136.438 5.64431 136 5.64431C135.561 5.64431 135.174 5.55944 134.839 5.38968C134.504 5.21993 134.246 4.99077 134.065 4.69371C133.885 4.39664 133.79 4.05714 133.79 3.6752V0.0849609H134.65V3.6073C134.65 3.85344 134.701 4.06562 134.813 4.26084C134.925 4.44756 135.08 4.60035 135.277 4.71068C135.484 4.82102 135.716 4.87194 135.991 4.87194C136.266 4.87194 136.507 4.82102 136.705 4.71068C136.902 4.60035 137.057 4.45605 137.169 4.26084C137.281 4.07411 137.332 3.85344 137.332 3.6073V0.0849609H137.349Z" fill="black"/>
<path d="M139.088 5.55065V0.0761719H141.082C141.512 0.0761719 141.865 0.152564 142.148 0.30534C142.432 0.458116 142.647 0.670305 142.785 0.941906C142.931 1.21351 143 1.51057 143 1.85007C143 2.18958 142.931 2.49513 142.785 2.75824C142.639 3.02984 142.424 3.24203 142.14 3.39481C141.856 3.54759 141.495 3.62397 141.065 3.62397H139.707V2.90253H140.979C141.246 2.90253 141.469 2.8601 141.633 2.76673C141.796 2.67337 141.925 2.54605 142.002 2.38479C142.08 2.22353 142.123 2.04529 142.123 1.84159C142.123 1.63788 142.08 1.45116 142.002 1.29838C141.925 1.13712 141.796 1.01829 141.633 0.924928C141.461 0.831564 141.246 0.78913 140.971 0.78913H139.939V5.53367H139.079L139.088 5.55065Z" fill="black"/>
</svg>
